<?xml version="1.0" encoding="utf-8"?>
<!-- Generator: Adobe Illustrator 16.0.0, SVG Export Plug-In . SVG Version: 6.00 Build 0)  -->
<!DOCTYPE svg PUBLIC "-//W3C//DTD SVG 1.1//EN" "http://www.w3.org/Graphics/SVG/1.1/DTD/svg11.dtd">
<svg version="1.1" id="Capa_1" xmlns="http://www.w3.org/2000/svg" xmlns:xlink="http://www.w3.org/1999/xlink" x="0px" y="0px"
	 width="31.258px" height="30px" viewBox="0 0 31.258 30" enable-background="new 0 0 31.258 30" xml:space="preserve">
<g opacity="0.5">
	<path fill-rule="evenodd" clip-rule="evenodd" d="M18.405,21.877c0.655-0.129,1.258-0.221,1.845-0.368
		c1.768-0.446,3.25-1.317,4.068-3.022c0.828-1.725,1.016-3.549,0.605-5.42c-0.182-0.827-0.591-1.553-1.14-2.196
		c-0.124-0.145-0.173-0.264-0.11-0.465c0.36-1.152,0.252-2.29-0.139-3.417c-0.071-0.208-0.185-0.271-0.388-0.266
		c-0.707,0.016-1.364,0.231-1.988,0.536c-0.525,0.256-1.021,0.573-1.542,0.84c-0.148,0.076-0.355,0.128-0.51,0.091
		c-2.303-0.557-4.6-0.555-6.901,0.003c-0.146,0.036-0.348-0.002-0.478-0.082c-0.974-0.597-1.96-1.155-3.108-1.35
		C7.929,6.644,7.863,6.679,7.675,7.331C7.378,8.368,7.33,9.407,7.651,10.452c0.031,0.1,0.007,0.262-0.058,0.337
		c-1.326,1.533-1.571,3.335-1.3,5.257c0.076,0.542,0.192,1.087,0.362,1.606c0.701,2.143,2.277,3.315,4.388,3.856
		c0.598,0.153,1.211,0.248,1.853,0.377c-0.484,0.519-0.739,1.125-0.869,1.793c-0.015,0.082-0.111,0.179-0.192,0.211
		c-1.537,0.596-3.085,0.408-4.078-1.204c-0.481-0.778-1.107-1.371-2.033-1.555c-0.232-0.047-0.492-0.027-0.726,0.022
		c-0.27,0.057-0.309,0.225-0.126,0.436c0.106,0.123,0.231,0.241,0.369,0.324c0.793,0.471,1.302,1.182,1.638,2.012
		c0.564,1.387,1.649,1.999,3.065,2.089c0.659,0.042,1.326-0.045,2.026-0.076c0,0.903,0.021,1.842-0.009,2.778
		c-0.016,0.494-0.512,0.734-1.069,0.553c-1.256-0.409-2.443-0.974-3.522-1.733c-4.479-3.151-6.745-7.476-6.493-12.95
		C1.189,7.78,6.14,2.238,12.864,0.934c7.664-1.486,15.169,3.224,17.157,10.772c1.94,7.358-2.299,15.169-9.522,17.547
		c-0.72,0.238-1.15-0.066-1.15-0.819c0.001-1.196,0.001-2.395,0.014-3.591C19.372,23.762,19.216,22.733,18.405,21.877z"/>
	<path fill-rule="evenodd" clip-rule="evenodd" d="M10.429,24.359c0.139,0.133,0.229,0.22,0.319,0.304
		c-0.107,0.073-0.21,0.192-0.322,0.201c-0.091,0.006-0.192-0.119-0.289-0.188C10.219,24.588,10.301,24.497,10.429,24.359z"/>
	<path fill-rule="evenodd" clip-rule="evenodd" d="M8.271,24.25c-0.144-0.199-0.244-0.321-0.317-0.457
		c-0.009-0.018,0.168-0.17,0.186-0.157c0.12,0.085,0.234,0.189,0.32,0.31C8.479,23.974,8.377,24.086,8.271,24.25z"/>
	<path fill-rule="evenodd" clip-rule="evenodd" d="M9.245,24.771c-0.124-0.137-0.215-0.237-0.307-0.337
		c0.085-0.06,0.197-0.184,0.25-0.161c0.13,0.052,0.233,0.172,0.347,0.264C9.454,24.601,9.374,24.666,9.245,24.771z"/>
	<path fill-rule="evenodd" clip-rule="evenodd" d="M11.58,24.218c0.132,0.123,0.216,0.201,0.299,0.277
		c-0.114,0.082-0.218,0.199-0.345,0.234c-0.069,0.018-0.177-0.104-0.268-0.163C11.356,24.465,11.447,24.364,11.58,24.218z"/>
	<path fill-rule="evenodd" clip-rule="evenodd" d="M7.78,23.078c-0.114,0.102-0.211,0.206-0.226,0.194
		c-0.11-0.078-0.217-0.173-0.294-0.284c-0.016-0.021,0.097-0.134,0.151-0.204C7.518,22.87,7.625,22.955,7.78,23.078z"/>
	<path fill-rule="evenodd" clip-rule="evenodd" d="M6.95,22.53c-0.118-0.139-0.209-0.219-0.26-0.318
		c-0.017-0.035,0.066-0.12,0.104-0.183c0.098,0.085,0.204,0.164,0.286,0.262C7.096,22.31,7.02,22.405,6.95,22.53z"/>
</g>
</svg>
