<?xml version="1.0" encoding="utf-8"?>
<!-- Generator: Adobe Illustrator 16.0.0, SVG Export Plug-In . SVG Version: 6.00 Build 0)  -->
<!DOCTYPE svg PUBLIC "-//W3C//DTD SVG 1.1//EN" "http://www.w3.org/Graphics/SVG/1.1/DTD/svg11.dtd">
<svg version="1.1" id="Capa_1" xmlns="http://www.w3.org/2000/svg" xmlns:xlink="http://www.w3.org/1999/xlink" x="0px" y="0px"
	 width="31.258px" height="30px" viewBox="0 0 31.258 30" enable-background="new 0 0 31.258 30" xml:space="preserve">
<g opacity="0.5">
	<path id="LinkedIn" d="M31.258,18.378v11.558h-6.699V19.15c0-2.707-0.971-4.558-3.396-4.558c-1.853,0-2.954,1.246-3.438,2.451
		c-0.178,0.433-0.223,1.03-0.223,1.633v11.259h-6.699c0,0,0.088-18.266,0-20.157h6.701v2.857c-0.014,0.021-0.031,0.044-0.043,0.064
		h0.043v-0.064c0.891-1.371,2.479-3.331,6.039-3.331C27.953,9.307,31.258,12.188,31.258,18.378z M3.792,0.064
		C1.5,0.064,0,1.568,0,3.546C0,5.48,1.456,7.029,3.703,7.029h0.045c2.336,0,3.79-1.549,3.79-3.483
		C7.494,1.568,6.084,0.064,3.792,0.064z M0.397,29.936h6.699V9.781H0.397V29.936z"/>
</g>
</svg>
