<?xml version="1.0" encoding="utf-8"?>
<!-- Generator: Adobe Illustrator 16.0.0, SVG Export Plug-In . SVG Version: 6.00 Build 0)  -->
<!DOCTYPE svg PUBLIC "-//W3C//DTD SVG 1.1//EN" "http://www.w3.org/Graphics/SVG/1.1/DTD/svg11.dtd">
<svg version="1.1" id="Capa_1" xmlns="http://www.w3.org/2000/svg" xmlns:xlink="http://www.w3.org/1999/xlink" x="0px" y="0px"
	 width="36.125px" height="30px" viewBox="0 0 36.125 30" enable-background="new 0 0 36.125 30" xml:space="preserve">
<g opacity="0.5">
	<path id="Rdio_2_" d="M31.077,12.936c0.103,0.678,0.149,1.361,0.149,2.061c0,8.235-6.949,14.901-15.521,14.901
		c-8.574,0-15.521-6.668-15.521-14.901C0.184,6.771,7.132,0.103,15.703,0.103c1.681,0,3.299,0.259,4.809,0.733l0.002,9
		c0,0-4.617-2.531-8.75,0.436c-4.137,2.975-3.353,6.092-3.353,6.092s0.192,4.918,6.022,4.918c6.528,0,8.378-5.948,8.378-5.948V1.749
		c1.256,0.624,2.418,1.405,3.551,2.282c2.769,1.711,5.656,2.817,8.953,2.74c0,0,0.627-0.139,0.627,1.115
		c0,0.684-0.246,1.459-0.92,2.188C35.021,10.08,33.717,12.018,31.077,12.936"/>
</g>
</svg>
