<?xml version="1.0" encoding="utf-8"?>
<!-- Generator: Adobe Illustrator 16.0.0, SVG Export Plug-In . SVG Version: 6.00 Build 0)  -->
<!DOCTYPE svg PUBLIC "-//W3C//DTD SVG 1.1//EN" "http://www.w3.org/Graphics/SVG/1.1/DTD/svg11.dtd">
<svg version="1.1" id="Capa_1" xmlns="http://www.w3.org/2000/svg" xmlns:xlink="http://www.w3.org/1999/xlink" x="0px" y="0px"
	 width="36.934px" height="30px" viewBox="0 0 36.934 30" enable-background="new 0 0 36.934 30" xml:space="preserve">
<g opacity="0.5">
	<g>
		<path fill="#010002" d="M36.79,3.639c-1.351,0.598-2.795,1.002-4.316,1.184c1.553-0.93,2.742-2.404,3.304-4.156
			c-1.453,0.861-3.062,1.486-4.773,1.824c-1.372-1.463-3.323-2.375-5.488-2.375c-4.148,0-7.517,3.365-7.517,7.516
			c0,0.588,0.065,1.163,0.193,1.713C11.944,9.029,6.406,6.037,2.698,1.488c-0.648,1.108-1.02,2.4-1.02,3.779
			c0,2.608,1.329,4.91,3.344,6.256c-1.23-0.041-2.392-0.379-3.404-0.942v0.094c0,3.642,2.592,6.679,6.029,7.371
			c-0.631,0.169-1.295,0.265-1.98,0.265c-0.485,0-0.955-0.05-1.416-0.142c0.958,2.988,3.732,5.163,7.021,5.222
			c-2.57,2.018-5.813,3.215-9.337,3.215c-0.605,0-1.203-0.039-1.792-0.104c3.327,2.138,7.277,3.383,11.523,3.383
			c13.829,0,21.388-11.454,21.388-21.388L33.03,7.521C34.508,6.469,35.785,5.146,36.79,3.639z"/>
	</g>
</g>
</svg>
